<mxfile host="65bd71144e">
    <diagram id="Aw3tz2hpzRLThA5At5Bh" name="Page-1">
        <mxGraphModel dx="685" dy="475" grid="1" gridSize="10" guides="1" tooltips="1" connect="1" arrows="1" fold="1" page="1" pageScale="1" pageWidth="827" pageHeight="1169" math="0" shadow="0">
            <root>
                <mxCell id="0"/>
                <mxCell id="1" parent="0"/>
                <mxCell id="2" value="" style="shape=image;verticalLabelPosition=bottom;labelBackgroundColor=default;verticalAlign=top;aspect=fixed;imageAspect=0;image=https://media.datacamp.com/legacy/v1709142095/image_460901ce89.png;" parent="1" vertex="1">
                    <mxGeometry x="10" y="10" width="602" height="244" as="geometry"/>
                </mxCell>
            </root>
        </mxGraphModel>
    </diagram>
</mxfile>